<?xml version="1.0" encoding="iso-8859-1"?>
<!-- Generator: Adobe Illustrator 19.0.0, SVG Export Plug-In . SVG Version: 6.00 Build 0)  -->
<svg version="1.1" id="Layer_1" xmlns="http://www.w3.org/2000/svg" xmlns:xlink="http://www.w3.org/1999/xlink" x="0px" y="0px" viewBox="0 0 40 40" style="enable-background:new 0 0 40 40;fill:white" xml:space="preserve">
	<g id="XMLID_462_">
		<path id="XMLID_463_" d="M26.804 29.01c-2.832 2.34-6.465 3.746-10.426 3.746C7.333 32.756 0 25.424 0 16.378 0 7.333 7.333 0 16.378 0c9.046 0 16.378 7.333 16.378 16.378 0 3.96-1.406 7.594-3.746 10.426l10.534 10.534c.607.607.61 1.59-.004 2.202-.61.61-1.597.61-2.202.004L26.804 29.01zm-10.426.627c7.323 0 13.26-5.936 13.26-13.26 0-7.32-5.937-13.257-13.26-13.257C9.056 3.12 3.12 9.056 3.12 16.378c0 7.323 5.936 13.26 13.258 13.26z"/>
	</g>
</svg>
